<svg width="22" height="22" viewBox="0 0 22 22" fill="none" xmlns="http://www.w3.org/2000/svg">
<path d="M14.5556 11.8H11.8889C11.4 11.8 11 12.16 11 12.6V15C11 15.44 11.4 15.8 11.8889 15.8H14.5556C15.0444 15.8 15.4444 15.44 15.4444 15V12.6C15.4444 12.16 15.0444 11.8 14.5556 11.8ZM14.5556 3.8V4.6H7.44444V3.8C7.44444 3.36 7.04444 3 6.55556 3C6.06667 3 5.66667 3.36 5.66667 3.8V4.6H4.77778C3.79111 4.6 3.00889 5.32 3.00889 6.2L3 17.4C3 17.8243 3.1873 18.2313 3.5207 18.5314C3.8541 18.8314 4.30628 19 4.77778 19H17.2222C18.2 19 19 18.28 19 17.4V6.2C19 5.32 18.2 4.6 17.2222 4.6H16.3333V3.8C16.3333 3.36 15.9333 3 15.4444 3C14.9556 3 14.5556 3.36 14.5556 3.8ZM16.3333 17.4H5.66667C5.17778 17.4 4.77778 17.04 4.77778 16.6V8.6H17.2222V16.6C17.2222 17.04 16.8222 17.4 16.3333 17.4Z" fill="white"/>
</svg>
