<svg width="16" height="16" viewBox="0 0 16 16" fill="none" xmlns="http://www.w3.org/2000/svg">
<path d="M14 4.33301C14 5.61968 12.9533 6.66635 11.6667 6.66635C10.38 6.66635 9.33333 5.61968 9.33333 4.33301C9.33333 3.04634 10.38 1.99968 11.6667 1.99968C12.9533 1.99968 14 3.04634 14 4.33301ZM12.6667 7.85968C12.3333 7.94635 12 7.99968 11.6667 7.99968C10.6947 7.99792 9.76314 7.61104 9.07589 6.92379C8.38864 6.23654 8.00176 5.30493 8 4.33301C8 3.35301 8.38667 2.46634 9 1.80634C8.87901 1.65804 8.72647 1.53859 8.55347 1.45671C8.38048 1.37482 8.19139 1.33256 8 1.33301C7.26667 1.33301 6.66667 1.93301 6.66667 2.66634V2.85968C4.68667 3.44634 3.33333 5.26635 3.33333 7.33301V11.333L2 12.6663V13.333H14V12.6663L12.6667 11.333V7.85968ZM8 15.333C8.74 15.333 9.33333 14.7397 9.33333 13.9997H6.66667C6.66667 14.3533 6.80714 14.6924 7.05719 14.9425C7.30724 15.1925 7.64638 15.333 8 15.333Z" fill="white"/>
</svg>
